<svg xmlns="http://www.w3.org/2000/svg" xmlns:xlink="http://www.w3.org/1999/xlink" aria-hidden="true" role="img" class="iconify iconify--logos" width="31.88" height="32" preserveAspectRatio="xMidYMid meet" viewBox="0 0 256 257"><defs><linearGradient id="IconifyId181e5374820120011" x1="-.828%" x2="57.636%" y1="7.652%" y2="78.411%"><stop offset="0%" stop-color="#41D1FF"></stop><stop offset="100%" stop-color="#BD34FE"></stop></linearGradient><linearGradient id="IconifyId181e5374820120012" x1="43.376%" x2="50.325%" y1="2.242%" y2="89.03%"><stop offset="0%" stop-color="#FFEA83"></stop><stop offset="8.333%" stop-color="#FFDD35"></stop><stop offset="100%" stop-color="#FFA800"></stop></linearGradient></defs><path fill="url(#IconifyId181e5374820120011)" d="M255.153 37.938L134.897 252.69c-2.483 4.44-8.862 4.466-11.382.048L.871 37.938c-2.567-4.514 1.215-10.033 6.335-9.358l123.052 16.182a8.03 8.03 0 0 0 2.093-.003L248.814 28.58c5.12-.675 8.902 4.844 6.339 9.358"></path><path fill="url(#IconifyId181e5374820120012)" d="M150.761 12.026l-18.012 30.712a2.01 2.01 0 0 1-3.46.009L111.314 12.03a2.01 2.01 0 0 1 1.718-3.03l21.31.01a2.01 2.01 0 0 1 1.724 3.016l-8.027 13.928a2.01 2.01 0 0 0 3.486 2.013l21.114-36.438a1.99 1.99 0 0 1 3.404-.038"></path></svg>
