<svg id="visual" viewBox="0 0 900 600" width="900" height="600" xmlns="http://www.w3.org/2000/svg" xmlns:xlink="http://www.w3.org/1999/xlink" version="1.1"><rect x="0" y="0" width="900" height="600" fill="#c62368"></rect><defs><linearGradient id="grad1_0" x1="33.3%" y1="100%" x2="100%" y2="0%"><stop offset="20%" stop-color="#c62368" stop-opacity="1"></stop><stop offset="80%" stop-color="#c62368" stop-opacity="1"></stop></linearGradient></defs><defs><linearGradient id="grad2_0" x1="0%" y1="100%" x2="66.7%" y2="0%"><stop offset="20%" stop-color="#c62368" stop-opacity="1"></stop><stop offset="80%" stop-color="#c62368" stop-opacity="1"></stop></linearGradient></defs><g transform="translate(900, 600)"><path d="M-378.6 0C-338.5 -36.3 -298.5 -72.6 -282.7 -117.1C-266.9 -161.6 -275.4 -214.3 -256.7 -256.7C-238 -299.1 -192.2 -331.2 -144.9 -349.8C-97.6 -368.4 -48.8 -373.5 0 -378.6L0 0Z" fill="#ffd4e6"></path></g><g transform="translate(0, 0)"><path d="M378.6 0C378.2 53.8 377.8 107.6 349.8 144.9C321.7 182.2 265.9 202.9 224.9 224.9C183.8 246.8 157.5 269.8 122.5 295.6C87.4 321.5 43.7 350 0 378.6L0 0Z" fill="#ffd4e6"></path></g></svg>